<?xml version="1.0" encoding="utf-8"?>
<!-- Generator: Adobe Illustrator 16.0.0, SVG Export Plug-In . SVG Version: 6.00 Build 0)  -->
<!DOCTYPE svg PUBLIC "-//W3C//DTD SVG 1.1//EN" "http://www.w3.org/Graphics/SVG/1.1/DTD/svg11.dtd">
<svg version="1.1" id="Layer_1" xmlns="http://www.w3.org/2000/svg" xmlns:xlink="http://www.w3.org/1999/xlink" x="0px" y="0px"
	 width="48px" height="48px" viewBox="0 0 48 48" enable-background="new 0 0 48 48" xml:space="preserve">
<g>
	<defs>
		<rect id="SVGID_1_" width="48" height="48"/>
	</defs>
	<clipPath id="SVGID_2_">
		<use xlink:href="#SVGID_1_"  overflow="visible"/>
	</clipPath>
	<path clip-path="url(#SVGID_2_)" fill="transparent" d="M24,48c13.255,0,24-10.745,24-24S37.255,0,24,0S0,10.745,0,24S10.745,48,24,48"
		/>
	<path clip-path="url(#SVGID_2_)" fill="#FFFFFF" d="M30.776,18.211c-0.452,0-0.827,0.375-0.827,0.828
		c0,0.452,0.375,0.828,0.827,0.828s0.828-0.376,0.828-0.828C31.604,18.586,31.229,18.211,30.776,18.211"/>
	<path clip-path="url(#SVGID_2_)" fill="#FFFFFF" d="M26.748,18.211c-0.452,0-0.828,0.375-0.828,0.828
		c0,0.452,0.376,0.828,0.828,0.828c0.451,0,0.828-0.376,0.828-0.828C27.576,18.586,27.199,18.211,26.748,18.211"/>
	<path clip-path="url(#SVGID_2_)" fill="#FFFFFF" d="M22.719,18.211c-0.452,0-0.828,0.375-0.828,0.828
		c0,0.452,0.376,0.828,0.828,0.828c0.452,0,0.828-0.376,0.828-0.828C23.547,18.586,23.171,18.211,22.719,18.211"/>
	
		<path clip-path="url(#SVGID_2_)" fill="none" stroke="#FFFFFF" stroke-width="0.75" stroke-linecap="round" stroke-linejoin="round" stroke-miterlimit="10" d="
		M14.678,21.234h-1.635c-0.729,0-1.325,0.598-1.325,1.325v8.571c0,0.729,0.596,1.325,1.325,1.325h1.344l-0.015,3.709l3.619-3.709
		h7.343c0.729,0,1.324-0.597,1.324-1.325V28.7 M36.283,24.444c0,0.929-0.761,1.688-1.688,1.688h-1.713l0.02,4.726l-4.612-4.726
		h-9.357c-0.928,0-1.688-0.76-1.688-1.688V13.523c0-0.928,0.76-1.688,1.688-1.688h15.663c0.928,0,1.688,0.76,1.688,1.688V24.444z"/>
</g>
</svg>
