<?xml version="1.0" encoding="utf-8"?>
<!-- Generator: Adobe Illustrator 16.0.0, SVG Export Plug-In . SVG Version: 6.00 Build 0)  -->
<!DOCTYPE svg PUBLIC "-//W3C//DTD SVG 1.1//EN" "http://www.w3.org/Graphics/SVG/1.1/DTD/svg11.dtd">
<svg version="1.1" id="Layer_1" xmlns="http://www.w3.org/2000/svg" xmlns:xlink="http://www.w3.org/1999/xlink" x="0px" y="0px"
	 width="48px" height="48px" viewBox="0 0 48 48" enable-background="new 0 0 48 48" xml:space="preserve">
<g>
	<defs>
		<rect id="SVGID_1_" width="48" height="48"/>
	</defs>
	<clipPath id="SVGID_2_">
		<use xlink:href="#SVGID_1_"  overflow="visible"/>
	</clipPath>
	<path clip-path="url(#SVGID_2_)" fill="transparent" d="M24,48c13.255,0,24-10.745,24-24S37.255,0,24,0S0,10.745,0,24S10.745,48,24,48"
		/>
	<path clip-path="url(#SVGID_2_)" fill="#979797" d="M23.739,12.149c0.034,0,0.061-0.025,0.06-0.059
		c0-0.032-0.027-0.059-0.061-0.058c-0.034,0-0.061,0.025-0.061,0.059C23.679,12.124,23.705,12.149,23.739,12.149"/>
	<path clip-path="url(#SVGID_2_)" fill="none" stroke="#a0a0a0" stroke-width="0.75" stroke-miterlimit="10" d="M24.697,34.57
		c0,0.385-0.312,0.697-0.697,0.697c-0.386,0-0.698-0.313-0.698-0.697c0-0.386,0.312-0.698,0.698-0.698
		C24.385,33.872,24.697,34.185,24.697,34.57z M34.147,34.992c0,1.092-0.894,1.984-1.985,1.984H15.837
		c-1.092,0-1.984-0.893-1.984-1.984V13.007c0-1.091,0.892-1.983,1.984-1.983h16.325c1.092,0,1.985,0.893,1.985,1.983V34.992z
		 M31.821,31.344c0,0.468-0.383,0.85-0.851,0.85H17.029c-0.468,0-0.851-0.382-0.851-0.85V14.177c0-0.469,0.383-0.852,0.851-0.852
		h13.941c0.468,0,0.851,0.383,0.851,0.852V31.344z"/>
</g>
</svg>
