<?xml version="1.0" encoding="utf-8"?>
<!-- Generator: Adobe Illustrator 16.0.0, SVG Export Plug-In . SVG Version: 6.00 Build 0)  -->
<!DOCTYPE svg PUBLIC "-//W3C//DTD SVG 1.1//EN" "http://www.w3.org/Graphics/SVG/1.1/DTD/svg11.dtd">
<svg version="1.1" id="Layer_1" xmlns="http://www.w3.org/2000/svg" xmlns:xlink="http://www.w3.org/1999/xlink" x="0px" y="0px"
	 width="48px" height="48px" viewBox="0 0 48 48" enable-background="new 0 0 48 48" xml:space="preserve">
<g>
	<defs>
		<rect id="SVGID_1_" width="48" height="48"/>
	</defs>
	<clipPath id="SVGID_2_">
		<use xlink:href="#SVGID_1_"  overflow="visible"/>
	</clipPath>
	<path clip-path="url(#SVGID_2_)" fill="transparent" d="M24,48c13.255,0,24-10.745,24-24S37.255,0,24,0S0,10.745,0,24S10.745,48,24,48"
		/>
	
		<path clip-path="url(#SVGID_2_)" fill="none" stroke="#a0a0a0" stroke-width="0.75" stroke-linecap="round" stroke-linejoin="round" d="
		M34.709,30.232H13.388 M36.502,24H11.498 M34.709,17.767H13.388 M24,36.503V11.498 M31.014,24c0,6.905-3.141,12.503-7.013,12.503
		c-3.874,0-7.014-5.598-7.014-12.503S20.126,11.498,24,11.498C27.873,11.498,31.014,17.095,31.014,24z M36.502,24
		c0,6.905-5.598,12.503-12.501,12.503c-6.905,0-12.503-5.598-12.503-12.503S17.096,11.498,24,11.498
		C30.904,11.498,36.502,17.095,36.502,24z"/>
</g>
</svg>
