<?xml version="1.0" encoding="utf-8"?>
<!-- Generator: Adobe Illustrator 16.0.0, SVG Export Plug-In . SVG Version: 6.00 Build 0)  -->
<!DOCTYPE svg PUBLIC "-//W3C//DTD SVG 1.1//EN" "http://www.w3.org/Graphics/SVG/1.1/DTD/svg11.dtd">
<svg version="1.1" id="Layer_1" xmlns="http://www.w3.org/2000/svg" xmlns:xlink="http://www.w3.org/1999/xlink" x="0px" y="0px"
	 width="38.76px" height="36.012px" viewBox="0 0 38.76 36.012" enable-background="new 0 0 38.76 36.012" xml:space="preserve">
<path id="blue_volIcon3" fill="#89D329" d="M18.115,31.862l-9.518-7.114c-0.24-0.18-0.531-0.276-0.831-0.276H2.771v-12.93h4.996
	c0.3,0,0.591-0.098,0.831-0.276l9.518-7.117L18.115,31.862L18.115,31.862z M18.67,0.274L7.308,8.772H1.386
	C0.619,8.772,0,9.391,0,10.158v15.698c0,0.767,0.619,1.386,1.386,1.386h5.922l11.362,8.494c0.244,0.184,0.537,0.275,0.83,0.275
	c0.211,0,0.425-0.05,0.619-0.146c0.469-0.236,0.767-0.715,0.767-1.239V1.383c0-0.524-0.298-1.003-0.767-1.239
	C19.651-0.086,19.088-0.039,18.67,0.274"/>
<path fill="#89D329" d="M25.49,25.761c-0.32,0-0.64-0.122-0.884-0.366c-0.488-0.488-0.488-1.279,0-1.768l12.021-12.021
	c0.488-0.488,1.279-0.488,1.768,0s0.488,1.279,0,1.768L26.374,25.395C26.129,25.639,25.81,25.761,25.49,25.761z"/>
<path fill="#89D329" d="M37.51,25.761c-0.32,0-0.64-0.122-0.884-0.366L24.606,13.373c-0.488-0.488-0.488-1.279,0-1.768
	s1.279-0.488,1.768,0l12.021,12.021c0.488,0.488,0.488,1.279,0,1.768C38.15,25.639,37.83,25.761,37.51,25.761z"/>
</svg>
