<svg width="32" height="32" viewBox="0 0 32 32" fill="none" xmlns="http://www.w3.org/2000/svg">
<path fill-rule="evenodd" clip-rule="evenodd" d="M11.2121 20.3079L14.718 12.044L15.6386 12.4346L12.1032 20.7681C14.576 21.8828 17.4239 21.8828 19.8968 20.7681L16.3614 12.4346L17.2819 12.044L20.7878 20.3079C21.2973 20.0095 21.7852 19.6595 22.2441 19.258L22.9026 20.0106C22.362 20.4836 21.7849 20.8919 21.1814 21.2355L23.0336 25.6016L22.1131 25.9921L20.2875 21.689C17.5653 22.9092 14.4346 22.9092 11.7125 21.689L9.88689 25.9921L8.96631 25.6016L10.8186 21.2355C10.215 20.8919 9.63795 20.4836 9.09736 20.0106L9.75586 19.258C10.2147 19.6595 10.7026 20.0095 11.2121 20.3079Z" fill="#1A1B1D"/>
<path d="M16 10.0368L19.708 12L18.724 8.3L22 5.81053L17.686 5.48947L16 2L14.314 5.48947L10 5.81053L13.276 8.3L12.292 12L16 10.0368Z" fill="#1A1B1D"/>
<path fill-rule="evenodd" clip-rule="evenodd" d="M7 17.5002C7.60722 17.0441 8 16.3179 8 15.5C8 14.1193 6.88071 13 5.5 13C4.11929 13 3 14.1193 3 15.5C3 16.3179 3.39278 17.0441 4 17.5002V19H3V20H4V27H2V30H9V27H7V20H8V19H7V17.5002ZM6 17.95C5.83845 17.9828 5.67123 18 5.5 18C5.32877 18 5.16155 17.9828 5 17.95V19H6V17.95ZM5 20H6V28H8V29H3V28H5V20Z" fill="#1A1B1D"/>
<path fill-rule="evenodd" clip-rule="evenodd" d="M28 17.5002C28.6072 17.0441 29 16.3179 29 15.5C29 14.1193 27.8807 13 26.5 13C25.1193 13 24 14.1193 24 15.5C24 16.3179 24.3928 17.0441 25 17.5002V19H24V20H25V27H24H23V28V29V30H24H29H30V29V28V27H29H28V20H29V19H28V17.5002ZM27 17.95C26.8384 17.9828 26.6712 18 26.5 18C26.3288 18 26.1616 17.9828 26 17.95V19H27V17.95ZM26 27V20H27V27V28H28H29V29H24V28H25H26V27Z" fill="#1A1B1D"/>
</svg>
