<svg xmlns="http://www.w3.org/2000/svg" width="589.053" height="28" viewBox="0 0 589.053 28"><defs><style>.a,.g,.h,.i,.j{fill:#fff;}.b,.d,.f{fill:none;stroke-linecap:round;}.b,.f,.j{stroke:#fff;}.b,.d{stroke-linejoin:round;}.b{stroke-width:1.3px;}.c{fill:#2c77a8;}.d{stroke:#000;}.e{opacity:0.603;}.g{font-size:23px;font-family:Gourmand;letter-spacing:0.08em;}.h,.i{stroke:rgba(0,0,0,0);}.i{opacity:0.998;}.j{stroke-width:0.5px;opacity:0.194;}</style></defs><g transform="translate(-36.5 -37)"><g transform="translate(-217 -22)"><g transform="translate(251 58.314)"><g transform="translate(2.5 2.5)"><path class="a" d="M33.842,28.5a5.417,5.417,0,1,0,5.417,5.417A5.452,5.452,0,0,0,33.842,28.5Zm0,9.4a3.981,3.981,0,1,1,3.981-3.981A3.989,3.989,0,0,1,33.842,37.9Z" transform="translate(-21.867 -21.942)"/><path class="a" d="M25.718,13.744H23.752a9.343,9.343,0,0,0-8.571-8.571V3.231a.731.731,0,0,0-1.462,0V5.2a9.343,9.343,0,0,0-8.571,8.571H3.231a.731.731,0,1,0,0,1.462H5.2A9.343,9.343,0,0,0,13.769,23.8v1.966a.731.731,0,1,0,1.462,0V23.8A9.343,9.343,0,0,0,23.8,15.231h1.966A.732.732,0,0,0,26.5,14.5.816.816,0,0,0,25.718,13.744ZM14.475,22.366a7.891,7.891,0,1,1,7.891-7.891A7.886,7.886,0,0,1,14.475,22.366Z" transform="translate(-2.5 -2.5)"/></g></g></g><g transform="translate(-147 -22)"><g transform="translate(254.157 61.658)"><path class="a" d="M14.885,13.581a7.483,7.483,0,1,0-1.3,1.3L19.595,20.9a.922.922,0,0,0,1.3-1.3ZM5,12.974a5.641,5.641,0,1,1,7.977,0A5.638,5.638,0,0,1,5,12.974Z"/></g></g><g transform="translate(-65 -1932)"><g transform="translate(242.466 1971.59)"><circle class="b" cx="6.393" cy="6.393" r="6.393" transform="translate(5 1)"/><path class="b" d="M8.105,13.889,7,22.209l4.566-2.74,4.566,2.74L15.028,13.88" transform="translate(-0.173 -1.117)"/></g></g><path class="c" d="M10.207,0H.793A.793.793,0,0,0,0,.793v9.413A.793.793,0,0,0,.793,11h9.413A.793.793,0,0,0,11,10.207V.793A.793.793,0,0,0,10.207,0ZM3.9,8.314H2.562V4.285H3.9Zm-.67-4.58H3.223a.7.7,0,1,1,.018-1.392.7.7,0,1,1-.009,1.392Zm5.5,4.58H7.392V6.159c0-.542-.194-.911-.679-.911a.733.733,0,0,0-.687.49.917.917,0,0,0-.044.327v2.25H4.643s.018-3.652,0-4.03H5.982v.571A1.33,1.33,0,0,1,7.19,4.19c.881,0,1.542.576,1.542,1.814Zm0,0" transform="translate(235.956 44.72)"/><g transform="translate(272 40)"><path class="d" d="M20,9.5c0,6.611-8.5,12.278-8.5,12.278S3,16.111,3,9.5a8.5,8.5,0,1,1,17,0Z" transform="translate(-3 -1)"/><ellipse class="d" cx="2.858" cy="2.858" rx="2.858" ry="2.858" transform="translate(5.642 5.649)"/></g><path class="d" d="M21.9,17.156V20.14a1.99,1.99,0,0,1-2.169,1.99,19.689,19.689,0,0,1-8.586-3.054,19.4,19.4,0,0,1-5.969-5.969A19.688,19.688,0,0,1,2.12,4.481,1.99,1.99,0,0,1,4.1,2.313H7.084a1.99,1.99,0,0,1,1.99,1.711,12.774,12.774,0,0,0,.7,2.8,1.99,1.99,0,0,1-.448,2.1L8.059,10.182a15.918,15.918,0,0,0,5.969,5.969l1.263-1.263a1.99,1.99,0,0,1,2.1-.448,12.775,12.775,0,0,0,2.8.7,1.99,1.99,0,0,1,1.711,2.02Z" transform="matrix(0.995, 0.105, -0.105, 0.995, 314.006, 37.479)"/><g transform="translate(360.328 42)"><path class="d" d="M4.125,4h17a2.131,2.131,0,0,1,2.125,2.125v12.75A2.131,2.131,0,0,1,21.125,21h-17A2.131,2.131,0,0,1,2,18.875V6.125A2.131,2.131,0,0,1,4.125,4Z" transform="translate(-2 -4)"/><path class="d" d="M23.251,6,12.625,13.438,2,6" transform="translate(-2 -3.875)"/></g><g transform="translate(-6022 -367.524)"><g transform="translate(6451.559 412)"><path class="a" d="M18.417,10.617l-5.48-5.48a.548.548,0,0,0-.937.4V16.5a.548.548,0,0,0,.937.389l5.48-5.48a.548.548,0,0,0,0-.778Z" transform="translate(-12 -4.974)"/></g><g transform="translate(6440.445 412)"><path class="a" d="M18.417,10.617l-5.48-5.48a.548.548,0,0,0-.937.4V16.5a.548.548,0,0,0,.937.389l5.48-5.48a.548.548,0,0,0,0-.778Z" transform="translate(-12 -4.974)"/></g><g class="e" transform="translate(6428.801 412)"><path class="a" d="M18.417,10.617l-5.48-5.48a.548.548,0,0,0-.937.4V16.5a.548.548,0,0,0,.937.389l5.48-5.48a.548.548,0,0,0,0-.778Z" transform="translate(-12 -4.974)"/></g></g><g transform="translate(461.143 31)"><g transform="translate(20.371 10.012) rotate(45)"><path class="f" d="M0,0V14.324" transform="translate(7.162 0)"/><path class="f" d="M0,0V14.324" transform="translate(14.324 7.161) rotate(90)"/></g></g><g transform="translate(419 17)"><text class="g" transform="translate(107 41)"><tspan x="0" y="0">P</tspan></text><g transform="translate(143.943 26)"><path class="h" d="M7.554-53.986v-7.6H10.4a2.406,2.406,0,0,1,1.236.309,2.033,2.033,0,0,1,.793.807,2.32,2.32,0,0,1,.264,1.105,2.19,2.19,0,0,1-.624,1.581,2.214,2.214,0,0,1-1.67.646h-2.2v3.157Zm.651-3.752h2.132a1.652,1.652,0,0,0,1.214-.456,1.58,1.58,0,0,0,.462-1.175,1.583,1.583,0,0,0-.459-1.177A1.656,1.656,0,0,0,10.337-61H8.205Zm5.857,3.752v-7.6H16.9a2.36,2.36,0,0,1,1.662.6,2.093,2.093,0,0,1,.654,1.62,2.263,2.263,0,0,1-.292,1.166,1.951,1.951,0,0,1-.763.752,2.386,2.386,0,0,1-1.055.276l2.2,3.19h-.785l-2.132-3.145H14.713v3.145Zm.651-3.741h2.132a1.663,1.663,0,0,0,1.222-.459,1.591,1.591,0,0,0,.465-1.183,1.572,1.572,0,0,0-.465-1.177A1.675,1.675,0,0,0,16.845-61H14.713Zm6.1,1.5a4.534,4.534,0,0,1-.262-1.553,4.491,4.491,0,0,1,.264-1.553,3.766,3.766,0,0,1,.74-1.25,3.375,3.375,0,0,1,1.172-.829,3.747,3.747,0,0,1,1.514-.3,3.626,3.626,0,0,1,1.935.521,3.488,3.488,0,0,1,1.305,1.414,4.335,4.335,0,0,1,.457,2,4.335,4.335,0,0,1-.457,2,3.488,3.488,0,0,1-1.305,1.414,3.626,3.626,0,0,1-1.935.521,3.747,3.747,0,0,1-1.514-.3,3.375,3.375,0,0,1-1.172-.83A3.8,3.8,0,0,1,20.809-56.229Zm.423-1.553A3.885,3.885,0,0,0,21.6-56.07a2.851,2.851,0,0,0,1.052,1.191,2.9,2.9,0,0,0,1.589.437,2.917,2.917,0,0,0,1.587-.434,2.837,2.837,0,0,0,1.058-1.194,3.882,3.882,0,0,0,.367-1.712,3.9,3.9,0,0,0-.367-1.717,2.819,2.819,0,0,0-1.058-1.191,2.931,2.931,0,0,0-1.587-.431,2.762,2.762,0,0,0-2.182.938A3.507,3.507,0,0,0,21.232-57.782Zm8.306,3.8v-7.6h2.85a2.406,2.406,0,0,1,1.236.309,2.033,2.033,0,0,1,.793.807,2.32,2.32,0,0,1,.264,1.105,2.19,2.19,0,0,1-.624,1.581,2.214,2.214,0,0,1-1.67.646h-2.2v3.157Zm.651-3.752h2.132a1.652,1.652,0,0,0,1.214-.456A1.58,1.58,0,0,0,34-59.369a1.583,1.583,0,0,0-.459-1.177A1.656,1.656,0,0,0,32.322-61H30.19Zm5.434,2.678.423-.49a3.542,3.542,0,0,0,1.024.793,2.886,2.886,0,0,0,1.358.315,2.932,2.932,0,0,0,.96-.142,1.491,1.491,0,0,0,.624-.376,1.567,1.567,0,0,0,.312-.482,1.4,1.4,0,0,0,.1-.515,1.23,1.23,0,0,0-.156-.626,1.271,1.271,0,0,0-.42-.44,3.3,3.3,0,0,0-.607-.3q-.342-.131-.721-.234t-.754-.214a5.506,5.506,0,0,1-.718-.267,3.017,3.017,0,0,1-.607-.362,1.455,1.455,0,0,1-.42-.534,1.733,1.733,0,0,1-.156-.752,1.791,1.791,0,0,1,.337-1.074,2.125,2.125,0,0,1,.9-.713,3.144,3.144,0,0,1,1.258-.245,3.218,3.218,0,0,1,2.578,1.074l-.434.479a2.67,2.67,0,0,0-2.177-.958,2.013,2.013,0,0,0-1.272.4,1.222,1.222,0,0,0-.509,1.008.96.96,0,0,0,.156.546,1.218,1.218,0,0,0,.42.384,3.546,3.546,0,0,0,.607.267q.342.117.721.223t.754.22a4.493,4.493,0,0,1,.718.287,2.967,2.967,0,0,1,.607.4,1.615,1.615,0,0,1,.42.582,1.99,1.99,0,0,1,.156.81,2.228,2.228,0,0,1-.081.6,1.934,1.934,0,0,1-.281.579,2.028,2.028,0,0,1-.5.5,2.459,2.459,0,0,1-.771.342,4.015,4.015,0,0,1-1.069.131,3.773,3.773,0,0,1-1.609-.331A3.346,3.346,0,0,1,35.623-55.06Zm7.042,1.074v-7.6h.651v3.4h4.821v-3.4h.651v7.6h-.651V-57.6H43.317v3.613Zm7.237,0,3.112-7.6h.807l3.112,7.6h-.752l-.752-1.871H51.406l-.752,1.871Zm1.72-2.461h3.591l-1.787-4.448Zm6.43,2.461v-7.6h2.839a2.36,2.36,0,0,1,1.662.6,2.093,2.093,0,0,1,.654,1.62,2.263,2.263,0,0,1-.292,1.166,1.951,1.951,0,0,1-.763.752,2.386,2.386,0,0,1-1.055.276l2.2,3.19h-.785L60.38-57.131H58.7v3.145Zm.651-3.741h2.132a1.663,1.663,0,0,0,1.222-.459,1.591,1.591,0,0,0,.465-1.183,1.572,1.572,0,0,0-.465-1.177A1.675,1.675,0,0,0,60.837-61H58.7Zm6.118,3.741v-7.6h4.821V-61h-4.17v2.817h4.092v.6H65.474v3.012h4.17v.59Z" transform="translate(-7.534 61.718)"/><path class="i" d="M2.393-44.427a3.061,3.061,0,0,1,.414-1.591A2.83,2.83,0,0,1,3.936-47.1a3.361,3.361,0,0,1,1.6-.379,3.021,3.021,0,0,1,.864.119,2.35,2.35,0,0,1,.694.328,3.04,3.04,0,0,1,.513.453,2.928,2.928,0,0,1,.382.541l-1.078.53a1.576,1.576,0,0,0-.565-.612,1.47,1.47,0,0,0-.811-.241,1.761,1.761,0,0,0-1.33.548,1.922,1.922,0,0,0-.524,1.384,1.929,1.929,0,0,0,.524,1.386,1.758,1.758,0,0,0,1.33.55,1.46,1.46,0,0,0,.811-.244,1.592,1.592,0,0,0,.565-.614l1.078.522a3.229,3.229,0,0,1-.382.541,2.93,2.93,0,0,1-.511.455,2.387,2.387,0,0,1-.7.332,2.972,2.972,0,0,1-.864.121A3.407,3.407,0,0,1,4.3-41.6a3.051,3.051,0,0,1-1-.619,2.8,2.8,0,0,1-.662-.966A3.151,3.151,0,0,1,2.393-44.427Zm10.257,2.94,2.268-5.89h1.574l2.268,5.89H17.336l-.371-1H14.443l-.371,1Zm2.134-2.1H16.62L15.7-46.122Zm9.11,2.1v-5.89h2.755a2.285,2.285,0,0,1,.847.151,1.7,1.7,0,0,1,.625.41,1.817,1.817,0,0,1,.375.6,2.035,2.035,0,0,1,.132.735,2.005,2.005,0,0,1-.132.729,1.828,1.828,0,0,1-.377.6,1.713,1.713,0,0,1-.625.412,2.268,2.268,0,0,1-.845.151h-1.5v2.1Zm1.255-3.2h1.324a.922.922,0,0,0,.627-.216.722.722,0,0,0,.248-.573.727.727,0,0,0-.248-.578.922.922,0,0,0-.627-.216H25.148ZM34-41.487v-5.89h1.255v5.89Zm6.648-4.786v-1.1h4.7v1.1H43.636v4.786H42.377v-4.786Zm8.907,4.786,2.268-5.89H53.4l2.268,5.89H54.246l-.371-1H51.353l-.371,1Zm2.134-2.1H53.53l-.918-2.535Zm9.058,2.1v-5.89h1.263v4.786H64.5v1.1Z" transform="translate(-2.393 57.529)"/></g><path class="j" d="M1542,1675.116v14" transform="translate(-1410.926 -1647.616)"/></g></g></svg>