<?xml version="1.0" encoding="utf-8"?>
<!-- Generator: Adobe Illustrator 16.0.0, SVG Export Plug-In . SVG Version: 6.00 Build 0)  -->
<!DOCTYPE svg PUBLIC "-//W3C//DTD SVG 1.1//EN" "http://www.w3.org/Graphics/SVG/1.1/DTD/svg11.dtd">
<svg version="1.1" id="Layer_1" xmlns="http://www.w3.org/2000/svg" xmlns:xlink="http://www.w3.org/1999/xlink" x="0px" y="0px"
	 width="358.428px" height="357.622px" viewBox="0 0 358.428 357.622" enable-background="new 0 0 358.428 357.622"
	 xml:space="preserve">
<g>
	<g>
		<defs>
			<rect id="SVGID_1_" x="0.807" width="357.621" height="357.622"/>
		</defs>
		<clipPath id="SVGID_2_">
			<use xlink:href="#SVGID_1_"  overflow="visible"/>
		</clipPath>
		<path clip-path="url(#SVGID_2_)" fill="#26C5FF" d="M179.618,357.622c98.756,0,178.813-80.057,178.813-178.811
			C358.428,80.056,278.373,0,179.618,0S0.807,80.056,0.807,178.811C0.807,277.565,80.863,357.622,179.618,357.622"/>
	</g>
	<path fill="#E4004B" d="M77.129,179.173c0,55.967,45.533,101.5,101.499,101.5c52.979,0,96.58-40.805,101.089-92.633h15.988
		c0.258-2.922,0.354-5.873,0.354-8.858c0-2.984-0.097-5.936-0.354-8.857c-4.525-60.718-55.197-108.599-117.072-108.599
		c-64.858,0-117.458,52.598-117.458,117.457c0,64.859,52.601,117.426,117.458,117.426c61.875,0,112.547-47.85,117.072-108.566
		h-15.988c-4.51,51.826-48.11,92.633-101.089,92.633C122.661,280.674,77.128,235.14,77.129,179.173
		c-0.001-48.97,34.86-89.952,81.069-99.432C111.99,89.221,77.129,130.202,77.129,179.173z"/>
	<path fill="#F9F9FF" d="M272.094,170.324h-19.229c0.344,2.904,0.539,5.853,0.539,8.849c0,3-0.195,5.956-0.539,8.865h-0.002
		c-4.386,37.116-35.939,65.912-74.236,65.912c-41.298,0-74.778-33.479-74.778-74.777c0-41.299,33.48-74.778,74.778-74.778
		c38.301,0,69.858,28.804,74.24,65.928L272.094,170.324c-4.461-47.705-44.596-85.046-93.466-85.046
		c-51.856,0-93.894,42.038-93.894,93.895s42.039,93.894,93.894,93.894c48.864,0,88.995-37.331,93.464-85.027h0.002
		c0.273-2.92,0.429-5.875,0.429-8.867C272.523,176.187,272.368,173.238,272.094,170.324z"/>
	<path fill="#E4004B" d="M252.866,170.324h0.002c-4.382-37.125-35.938-65.928-74.24-65.928c-41.298,0-74.778,33.479-74.778,74.777
		c0,41.3,33.48,74.779,74.778,74.779c38.296,0,69.849-28.797,74.236-65.912c0.344-2.91,0.541-5.865,0.541-8.867
		C253.405,176.177,253.209,173.228,252.866,170.324z M178.628,238.073c-32.53,0-58.899-26.369-58.899-58.9
		c0-32.53,26.369-58.9,58.899-58.9c29.515,0,53.886,21.731,58.166,50.051h-0.002c0.438,2.894,0.736,5.833,0.736,8.849
		c0,3.022-0.3,5.967-0.738,8.867C232.504,216.351,208.135,238.073,178.628,238.073z"/>
	<path fill="#F9F9FF" d="M236.792,170.324h0.002c-4.279-28.32-28.65-50.051-58.166-50.051c-32.53,0-58.899,26.37-58.899,58.9
		c0,32.531,26.369,58.9,58.899,58.9c29.507,0,53.876-21.721,58.162-50.033c0.438-2.899,0.738-5.845,0.738-8.867
		C237.528,176.157,237.23,173.218,236.792,170.324z M218.183,188.04c-4.048,18.129-20.204,31.69-39.555,31.69
		c-22.399,0-40.557-18.157-40.557-40.557c0-22.399,18.159-40.557,40.557-40.557c19.357,0,35.519,13.57,39.56,31.708
		c0.637,2.852,0.998,5.806,0.998,8.849C219.186,182.223,218.821,185.183,218.183,188.04L218.183,188.04z"/>
	<path fill="#E4004B" d="M218.188,170.324c-4.043-18.138-20.204-31.707-39.56-31.707c-22.399,0-40.557,18.158-40.557,40.557
		c0,22.401,18.159,40.557,40.557,40.557c19.351,0,35.507-13.561,39.556-31.691c0.637-2.857,1.002-5.818,1.002-8.867
		C219.186,176.13,218.825,173.176,218.188,170.324z"/>
	<path fill="#002E46" d="M203.545,188.038c0.988-2.774,1.554-5.75,1.554-8.865c0-3.108-0.563-6.079-1.548-8.85
		c-3.646-10.261-13.412-17.621-24.923-17.621c-14.62,0-26.471,11.852-26.47,26.47c0,14.62,11.851,26.473,26.471,26.473
		c11.504,0,21.269-7.354,24.918-17.605"/>
</g>
<rect fill="none" width="357.622" height="357.622"/>
</svg>
