<?xml version="1.0" encoding="utf-8"?>
<!-- Generator: Adobe Illustrator 16.0.0, SVG Export Plug-In . SVG Version: 6.00 Build 0)  -->
<!DOCTYPE svg PUBLIC "-//W3C//DTD SVG 1.1//EN" "http://www.w3.org/Graphics/SVG/1.1/DTD/svg11.dtd">
<svg version="1.1" id="Layer_1" xmlns="http://www.w3.org/2000/svg" xmlns:xlink="http://www.w3.org/1999/xlink" x="0px" y="0px"
	 width="138.964px" height="137.894px" viewBox="0 0 138.964 137.894" enable-background="new 0 0 138.964 137.894"
	 xml:space="preserve">
<g>
	<polygon fill="#002E46" points="91.917,0 67.133,37.8 68.99,56.359 99.84,25.509 	"/>
	<polygon fill="#002E46" points="138.964,46.924 111.918,38.524 80.773,69.668 101.164,71.708 	"/>
	<path fill="#26C5FF" d="M117.111,33.331c1.743-1.743,2.608-4.03,2.599-6.314c-0.016,4.849-3.95,8.776-8.802,8.776
		c-4.862,0-8.805-3.942-8.805-8.804c0-4.848,3.92-8.779,8.763-8.802c-2.28-0.007-4.562,0.857-6.3,2.596l-4.727,4.727l-30.85,30.85
		l-66.391,66.39c-3.465,3.466-3.465,9.082,0,12.548c1.733,1.732,4.003,2.598,6.273,2.598c2.27,0,4.542-0.865,6.272-2.598
		l65.629-65.628l31.145-31.145L117.111,33.331z M69.935,71.917l-3.597-3.597l30.863-30.247l3.598,3.562L69.935,71.917z"/>
	<path fill="#F9F9FF" d="M102.104,26.988c0,4.862,3.942,8.804,8.805,8.804c4.852,0,8.786-3.927,8.802-8.776
		c0-0.01,0.001-0.019,0.001-0.028c0-4.862-3.941-8.804-8.803-8.804c-0.014,0-0.027,0.002-0.042,0.002
		C106.023,18.209,102.104,22.141,102.104,26.988z"/>
	<polygon fill="#002E46" points="97.201,38.074 66.338,68.321 69.935,71.917 100.799,41.636 	"/>
</g>
</svg>
