<?xml version="1.0" encoding="utf-8"?>
<!-- Generator: Adobe Illustrator 16.0.0, SVG Export Plug-In . SVG Version: 6.00 Build 0)  -->
<!DOCTYPE svg PUBLIC "-//W3C//DTD SVG 1.1//EN" "http://www.w3.org/Graphics/SVG/1.1/DTD/svg11.dtd">
<svg version="1.1" id="Layer_1" xmlns="http://www.w3.org/2000/svg" xmlns:xlink="http://www.w3.org/1999/xlink" x="0px" y="0px"
	 width="130.861px" height="90.557px" viewBox="0 0 130.861 90.557" enable-background="new 0 0 130.861 90.557"
	 xml:space="preserve">
<g>
	<path fill="none" d="M100.478,35.616c-5.611,0.089-11.029,2.067-15.378,5.614c-10.681,8.712-12.276,24.431-3.564,35.111
		l35.113-35.112C112.089,37.51,106.36,35.522,100.478,35.616z"/>
	<path fill="none" d="M85.554,19.418c-0.371-8.33-7.424-14.783-15.755-14.412c-3.774,0.166-7.349,1.741-10.018,4.413L36.396,32.804
		l21.36,21.351L81.142,30.77C84.141,27.773,85.741,23.654,85.554,19.418z M76.354,14.744c-0.682,1.212-2.215,1.643-3.428,0.962
		c-1.967-1.104-4.428-0.765-6.022,0.83l-3.063,3.062c-0.982,0.983-2.576,0.983-3.559,0c-0.983-0.983-0.983-2.576,0-3.559
		l3.063-3.063c3.19-3.19,8.113-3.868,12.047-1.658C76.604,11.999,77.034,13.532,76.354,14.744z"/>
	<path fill="none" d="M9.452,59.749c-5.891,5.897-5.889,15.452,0.006,21.348c5.896,5.897,15.457,5.897,21.355,0.002l23.385-23.386
		l-21.36-21.35L9.452,59.749z M21.588,55.774c0-1.39,1.128-2.517,2.517-2.515c1.391,0,2.517,1.127,2.516,2.518v0.003
		c-0.002,1.39-1.129,2.517-2.519,2.515c-1.39,0-2.516-1.128-2.514-2.518V55.774z M28.376,59.417c1.39,0.001,2.516,1.128,2.515,2.519
		v0.003c-0.001,1.39-1.128,2.516-2.518,2.515s-2.517-1.128-2.515-2.518v-0.004C25.859,60.542,26.986,59.416,28.376,59.417z
		 M19.328,68.772c0.001-1.39,1.127-2.516,2.518-2.516c1.39,0,2.516,1.127,2.516,2.517v0.001c0,1.39-1.127,2.517-2.517,2.517
		C20.454,71.289,19.328,70.164,19.328,68.772L19.328,68.772z M15.269,72.009c-0.001,1.39-1.127,2.516-2.517,2.516
		c-1.39-0.001-2.516-1.127-2.516-2.517v-0.006c0.002-1.389,1.129-2.514,2.519-2.514C14.145,69.49,15.27,70.617,15.269,72.009
		L15.269,72.009z M14.163,63.201v-0.002c0-1.39,1.127-2.516,2.517-2.516c1.391,0.001,2.517,1.127,2.517,2.518
		c-0.001,1.391-1.127,2.517-2.518,2.517C15.289,65.717,14.162,64.591,14.163,63.201z M22.65,77.977
		c-0.001,1.389-1.129,2.515-2.519,2.514s-2.516-1.128-2.515-2.518c0-1.391,1.127-2.517,2.517-2.517s2.517,1.126,2.517,2.517V77.977z
		 M26.054,77.608c-1.391,0-2.517-1.127-2.516-2.517V75.09c0-1.39,1.126-2.516,2.516-2.516c1.391,0.001,2.518,1.127,2.517,2.518
		C28.57,76.482,27.443,77.608,26.054,77.608z M34.528,69.225c-0.001,1.39-1.128,2.516-2.518,2.515
		c-1.391-0.001-2.517-1.128-2.516-2.519v-0.002c0.001-1.391,1.129-2.517,2.519-2.516s2.516,1.128,2.515,2.518V69.225z
		 M42.038,49.711c1.389,0,2.516,1.127,2.516,2.517s-1.127,2.517-2.516,2.517c-1.391,0-2.517-1.127-2.517-2.517
		S40.647,49.711,42.038,49.711z M39.13,59.586c1.39,0.002,2.516,1.127,2.516,2.518v0.001c0,1.39-1.127,2.517-2.517,2.517
		s-2.517-1.127-2.516-2.518v-0.001C36.613,60.713,37.74,59.586,39.13,59.586z M36.967,57.188c0,1.39-1.127,2.517-2.516,2.517
		c-1.39,0-2.517-1.127-2.517-2.517c0-1.391,1.127-2.516,2.517-2.516C35.84,54.672,36.967,55.797,36.967,57.188z M34.766,50.146
		L34.766,50.146c-0.001,1.392-1.127,2.517-2.518,2.517c-1.39,0-2.517-1.127-2.516-2.517v-0.001c0-1.39,1.127-2.516,2.517-2.516
		C33.64,47.63,34.766,48.756,34.766,50.146z"/>
	<path fill="none" d="M120.206,44.787L85.094,79.899c9.185,7.496,22.375,7.496,31.56,0C127.33,71.185,128.921,55.465,120.206,44.787
		z"/>
	<path fill="#00BBFF" d="M79.76,39.268l4.94-4.94c7.84-7.883,7.807-20.63-0.078-28.47c-4.002-3.981-9.49-6.098-15.129-5.836
		c-4.995,0.23-9.725,2.312-13.27,5.839L5.895,56.189c-7.861,7.864-7.859,20.611,0.005,28.473c7.863,7.861,20.611,7.859,28.472-0.006
		l44.896-44.896C79.429,39.593,79.595,39.432,79.76,39.268z M30.813,81.099c-5.898,5.896-15.459,5.896-21.355-0.002
		c-5.895-5.896-5.896-15.45-0.006-21.348l23.386-23.386l21.36,21.35L30.813,81.099z M36.396,32.804L59.781,9.419
		c2.669-2.672,6.243-4.247,10.018-4.413c8.331-0.371,15.384,6.082,15.755,14.412c0.188,4.236-1.413,8.355-4.412,11.352
		L57.757,54.154L36.396,32.804z"/>
	<path fill="#00BBFF" d="M75.392,11.318c-3.934-2.21-8.856-1.532-12.047,1.658l-3.063,3.063c-0.983,0.983-0.983,2.576,0,3.559
		c0.982,0.983,2.576,0.983,3.559,0l3.063-3.062c1.595-1.595,4.056-1.934,6.022-0.83c1.213,0.681,2.746,0.25,3.428-0.962
		C77.034,13.532,76.604,11.999,75.392,11.318z"/>
	<path fill="#00BBFF" d="M100.88,30.571c-0.291-0.001-0.582,0.004-0.874,0.012c-7.909,0.228-15.024,3.508-20.246,8.685
		c-0.165,0.164-0.331,0.326-0.492,0.493c-5.2,5.399-8.39,12.736-8.388,20.803c0,16.563,13.428,29.992,29.991,29.992
		s29.99-13.429,29.99-29.992C130.865,44.002,117.441,30.574,100.88,30.571z M85.1,41.229c4.349-3.547,9.767-5.525,15.378-5.614
		c5.883-0.093,11.611,1.894,16.171,5.613L81.535,76.341C72.823,65.66,74.419,49.941,85.1,41.229z M116.653,79.899
		c-9.185,7.496-22.375,7.496-31.56,0l35.112-35.113C128.921,55.465,127.33,71.185,116.653,79.899z"/>
	<path fill="#00BBFF" d="M20.134,75.456c-1.39,0-2.517,1.126-2.517,2.517c-0.001,1.39,1.125,2.517,2.515,2.518
		s2.518-1.125,2.519-2.514v-0.004C22.65,76.582,21.523,75.456,20.134,75.456z"/>
	<path fill="#00BBFF" d="M26.054,72.574c-1.39,0-2.516,1.126-2.516,2.516v0.002c-0.001,1.39,1.125,2.517,2.516,2.517
		c1.39,0,2.517-1.126,2.517-2.517C28.571,73.701,27.444,72.575,26.054,72.574z"/>
	<path fill="#00BBFF" d="M12.755,69.488c-1.39,0-2.517,1.125-2.519,2.514v0.006c0,1.39,1.126,2.516,2.516,2.517
		c1.39,0,2.516-1.126,2.517-2.516v-0.001C15.27,70.617,14.145,69.49,12.755,69.488z"/>
	<path fill="#00BBFF" d="M19.196,63.201c0-1.391-1.126-2.517-2.517-2.518c-1.39,0-2.517,1.126-2.517,2.516v0.002
		c-0.001,1.39,1.126,2.516,2.516,2.517C18.069,65.718,19.195,64.592,19.196,63.201z"/>
	<path fill="#00BBFF" d="M21.845,71.291c1.39,0,2.517-1.127,2.517-2.517v-0.001c0-1.39-1.126-2.517-2.516-2.517
		c-1.391,0-2.517,1.126-2.518,2.516v0.001C19.328,70.164,20.454,71.289,21.845,71.291z"/>
	<path fill="#00BBFF" d="M32.014,66.703c-1.39-0.001-2.518,1.125-2.519,2.516v0.002c-0.001,1.391,1.125,2.518,2.516,2.519
		c1.39,0.001,2.517-1.125,2.518-2.515v-0.004C34.529,67.831,33.403,66.704,32.014,66.703z"/>
	<path fill="#00BBFF" d="M36.613,62.104c-0.001,1.391,1.126,2.518,2.516,2.518s2.517-1.127,2.517-2.517v-0.001
		c0-1.391-1.126-2.516-2.516-2.518C37.74,59.586,36.613,60.713,36.613,62.104L36.613,62.104z"/>
	<path fill="#00BBFF" d="M24.102,58.295c1.39,0.002,2.517-1.125,2.519-2.515v-0.003c0.001-1.391-1.125-2.518-2.516-2.518
		c-1.389-0.002-2.517,1.125-2.517,2.515v0.003C21.586,57.167,22.712,58.295,24.102,58.295z"/>
	<circle fill="#00BBFF" cx="34.451" cy="57.188" r="2.516"/>
	<path fill="#00BBFF" d="M29.732,50.145L29.732,50.145c-0.001,1.391,1.126,2.518,2.516,2.518c1.391,0,2.517-1.125,2.518-2.516
		v-0.001c0-1.39-1.126-2.516-2.517-2.517C30.859,47.629,29.732,48.755,29.732,50.145z"/>
	<circle fill="#00BBFF" cx="42.038" cy="52.228" r="2.517"/>
	<path fill="#00BBFF" d="M25.858,61.932v0.004c-0.002,1.39,1.125,2.517,2.515,2.518s2.517-1.125,2.518-2.515v-0.003
		c0.001-1.391-1.125-2.518-2.515-2.519S25.859,60.542,25.858,61.932z"/>
</g>
</svg>
