<?xml version="1.0" encoding="utf-8"?>
<!-- Generator: Adobe Illustrator 16.0.0, SVG Export Plug-In . SVG Version: 6.00 Build 0)  -->
<!DOCTYPE svg PUBLIC "-//W3C//DTD SVG 1.1//EN" "http://www.w3.org/Graphics/SVG/1.1/DTD/svg11.dtd">
<svg version="1.1" id="Layer_1" xmlns="http://www.w3.org/2000/svg" xmlns:xlink="http://www.w3.org/1999/xlink" x="0px" y="0px"
	 width="120.175px" height="120.175px" viewBox="0 0 120.175 120.175" enable-background="new 0 0 120.175 120.175"
	 xml:space="preserve">
<g>
	<path fill="none" d="M42.737,27.169c0.807-0.79,2.094-0.79,2.9,0l10.81,10.809c-0.193-4.911-1.876-9.672-4.898-13.608
		c-5.069-5.22-12.12-8.038-19.391-7.751c-0.287,7.271,2.532,14.32,7.752,19.39c3.937,3.015,8.695,4.697,13.604,4.895L42.708,30.098
		C41.906,29.281,41.921,27.97,42.737,27.169z"/>
	<path fill="none" d="M80.808,98.602H51.423c-1.145,0-2.071-0.927-2.071-2.072c0-1.144,0.927-2.072,2.071-2.072h29.385
		c3.017,0,5.462-2.444,5.463-5.461c0-3.018-2.446-5.463-5.463-5.463H59.709c-0.471,0-0.928-0.16-1.295-0.453l-5.898-4.72
		c-3.17-2.541-6.95-4.032-10.849-4.429c-0.259,0.025-0.523,0.003-0.783-0.073c-3.195-0.203-6.449,0.331-9.496,1.644l-6.524,2.803
		v25.554l33.99,11.331c4.55,1.49,9.522,0.945,13.641-1.5l40.884-24.531c2.587-1.553,3.425-4.907,1.873-7.494
		c-1.553-2.586-4.907-3.425-7.493-1.872L90.476,90.16c-0.049,0.029-0.101,0.046-0.15,0.07
		C89.718,94.952,85.693,98.602,80.808,98.602z"/>
	<path fill="none" d="M60.436,79.389h18.231c-0.703-9.609-8.692-17.206-18.486-17.229c-6.206-0.016-11.935,3.063-15.377,8.077
		c3.703,0.797,7.239,2.435,10.303,4.887L60.436,79.389z"/>
	<path fill="none" d="M79.343,16.146c0.816-0.801,2.129-0.787,2.93,0.03c0.789,0.805,0.789,2.095,0,2.9L69.998,31.351
		c5.634-0.114,11.115-2.011,15.629-5.465c5.362-4.561,8.254-11.855,8.61-21.703c-9.864,0.356-17.169,3.257-21.727,8.638
		c-3.456,4.505-5.349,9.982-5.453,15.611L79.343,16.146z"/>
	<path fill="#88D229" d="M80.811,82.879h-0.003c-1.145,0.002-2.071-0.926-2.072-2.068v-0.004c0.001-0.479-0.033-0.948-0.068-1.418
		H60.436l-5.329-4.266c-3.064-2.452-6.6-4.09-10.303-4.887c-0.549,0.8-1.045,1.644-1.471,2.538c-0.325,0.676-0.97,1.089-1.667,1.157
		c3.899,0.396,7.679,1.888,10.849,4.429l5.898,4.72c0.367,0.293,0.824,0.453,1.295,0.453h21.099c3.017,0,5.463,2.445,5.463,5.463
		c-0.001,3.017-2.446,5.461-5.463,5.461H51.423c-1.145,0-2.071,0.929-2.071,2.072c0,1.146,0.927,2.072,2.071,2.072h29.385
		c4.886,0,8.91-3.649,9.518-8.371c-0.958,0.476-2.134,0.152-2.693-0.781c-0.588-0.98-0.271-2.253,0.711-2.842l1.485-0.891
		c-1.116-3.069-3.743-5.409-6.989-6.108c0.02,0.398,0.041,0.796,0.04,1.198C82.879,81.951,81.953,82.879,80.811,82.879z"/>
	<path fill="#88D229" d="M31.388,75.502c3.047-1.313,6.301-1.847,9.496-1.644c-0.106-0.032-0.213-0.065-0.316-0.115
		c-1.031-0.496-1.465-1.733-0.969-2.767c0.209-0.438,0.434-0.863,0.667-1.282c-3.549-0.1-7.136,0.547-10.514,1.999l-4.889,2.101
		v4.511L31.388,75.502z"/>
	<path fill="#88D229" d="M20.72,76.956v-0.012C20.72,76.948,20.72,76.952,20.72,76.956z"/>
	<path fill="#88D229" d="M118.805,79.531c-2.731-4.549-8.631-6.023-13.181-3.293l-15.796,9.479l-1.485,0.891
		c-0.982,0.589-1.299,1.861-0.711,2.842c0.56,0.934,1.735,1.257,2.693,0.781c0.05-0.024,0.102-0.041,0.15-0.07l17.282-10.368
		c2.586-1.553,5.94-0.714,7.493,1.872c1.552,2.587,0.714,5.941-1.873,7.494l-40.884,24.531c-4.118,2.445-9.091,2.99-13.641,1.5
		l-33.99-11.331v4.366l32.682,10.896c2.098,0.697,4.294,1.054,6.505,1.054c3.726-0.002,7.381-1.015,10.576-2.932l40.885-24.532
		C120.06,89.98,121.534,84.08,118.805,79.531z"/>
	<path fill="#88D229" d="M24.863,78.305v-4.511v-5.591v-0.002c-0.001-1.143-0.928-2.07-2.071-2.07H2.071
		C0.928,66.131,0,67.059,0,68.203s0.928,2.072,2.071,2.072H20.72v6.669v0.012v30.615H2.071c-1.144,0-2.071,0.928-2.071,2.071
		c0,1.146,0.928,2.072,2.071,2.072h20.721h0.002c1.144,0,2.07-0.928,2.069-2.072v-1.418v-4.366V78.305z"/>
	<path fill="#88D229" d="M82.272,16.176c-0.801-0.817-2.113-0.831-2.93-0.03L67.058,28.432c-0.018,0.94,0.01,1.885,0.094,2.83
		c0.951,0.083,1.9,0.108,2.847,0.089l12.274-12.274C83.062,18.271,83.062,16.981,82.272,16.176z"/>
	<path fill="#88D229" d="M62.159,58.102V45.656c-0.01-3.824,1.407-7.494,3.934-10.336c-0.389-0.04-0.779-0.068-1.166-0.124
		c-0.873-0.146-1.558-0.83-1.704-1.704c-0.049-0.345-0.083-0.69-0.121-1.035c-1.018,1.126-1.904,2.35-2.629,3.662
		c0.24,2.305,0.204,4.649-0.129,6.982c-0.001,0.007-0.005,0.012-0.006,0.019c-0.032,0.186-0.095,0.365-0.179,0.538
		c-0.019,0.039-0.039,0.076-0.06,0.114c-0.089,0.159-0.193,0.312-0.328,0.447c-0.004,0.004-0.008,0.009-0.012,0.013
		c-0.133,0.133-0.288,0.238-0.449,0.329c-0.037,0.021-0.072,0.041-0.11,0.059c-0.171,0.083-0.35,0.146-0.537,0.179
		c-0.008,0.001-0.015,0.006-0.022,0.007c-0.195,0.028-0.392,0.039-0.588,0.063c-0.01,0.263-0.038,0.524-0.037,0.789v12.458
		C59.385,57.984,60.771,57.978,62.159,58.102z"/>
	<path fill="#88D229" d="M60.159,43.657c-0.018,0.039-0.039,0.076-0.06,0.114C60.12,43.732,60.14,43.696,60.159,43.657z"/>
	<path fill="#88D229" d="M59.31,44.56c-0.036,0.021-0.073,0.041-0.11,0.059C59.238,44.6,59.273,44.58,59.31,44.56z"/>
	<path fill="#88D229" d="M58.663,44.797c-0.119,0.021-0.24,0.036-0.362,0.036c-0.549,0-1.077-0.218-1.465-0.607l-3.322-3.322
		c-4.909-0.198-9.667-1.88-13.604-4.895c-5.22-5.07-8.039-12.119-7.752-19.39c7.271-0.287,14.321,2.531,19.391,7.751
		c3.022,3.936,4.705,8.697,4.898,13.608l3.318,3.318c0.496,0.496,0.685,1.181,0.572,1.823c0.001-0.006,0.005-0.012,0.006-0.019
		c0.333-2.333,0.369-4.678,0.129-6.982c-0.542-5.193-2.503-10.186-5.737-14.398c-5.223-6.164-13.528-9.288-24.691-9.288h-0.003
		c-1.143,0.001-2.07,0.928-2.069,2.072c0,11.164,3.124,19.47,9.287,24.692c4.947,3.938,11.118,6.017,17.44,5.876
		c1.121,0.009,2.24-0.069,3.354-0.205c0.196-0.024,0.393-0.034,0.588-0.063C58.648,44.803,58.655,44.799,58.663,44.797z"/>
	<polygon fill="#88D229" points="59.759,44.23 59.771,44.218 59.765,44.226 	"/>
	<path fill="#88D229" d="M59.766,41.296l-3.318-3.318l-10.81-10.809c-0.807-0.79-2.094-0.79-2.9,0
		c-0.816,0.801-0.831,2.112-0.029,2.929l10.806,10.806l3.322,3.322c0.388,0.389,0.916,0.607,1.465,0.607
		c0.123,0,0.243-0.015,0.362-0.036c0.188-0.034,0.366-0.096,0.537-0.179c0.037-0.018,0.074-0.038,0.11-0.059
		c0.162-0.091,0.316-0.196,0.449-0.329c0.001-0.001,0.004-0.003,0.005-0.004c0.002-0.002,0.004-0.005,0.007-0.008
		c0.134-0.136,0.238-0.289,0.328-0.447c0.021-0.038,0.042-0.075,0.06-0.114c0.083-0.173,0.146-0.352,0.179-0.538
		C60.45,42.477,60.262,41.792,59.766,41.296z"/>
	<path fill="#88D229" d="M64.927,35.196c0.387,0.056,0.777,0.084,1.166,0.124c1.043,0.107,2.089,0.177,3.139,0.167
		c6.903,0.155,13.644-2.115,19.047-6.416c6.729-5.7,10.141-14.785,10.141-26.999V2.07C98.418,0.926,97.491,0,96.347,0
		C84.134,0,75.048,3.412,69.348,10.142c-4.885,6.366-7.107,14.363-6.246,22.314c0.038,0.345,0.072,0.69,0.121,1.035
		C63.369,34.366,64.054,35.05,64.927,35.196z M72.511,12.821c4.558-5.381,11.862-8.282,21.727-8.638
		c-0.356,9.848-3.248,17.142-8.61,21.703c-4.514,3.454-9.995,5.351-15.629,5.465c-0.946,0.02-1.896-0.006-2.847-0.089
		c-0.084-0.945-0.111-1.89-0.094-2.83C67.162,22.803,69.055,17.326,72.511,12.821z"/>
	<path fill="#88D229" d="M40.567,73.743c0.104,0.05,0.21,0.083,0.316,0.115c0.26,0.076,0.524,0.099,0.783,0.073
		c0.696-0.068,1.341-0.481,1.667-1.157c0.425-0.895,0.922-1.738,1.471-2.538c3.442-5.015,9.171-8.093,15.377-8.077
		c9.794,0.023,17.783,7.62,18.486,17.229c0.035,0.47,0.069,0.939,0.068,1.418v0.004c0.001,1.143,0.928,2.07,2.072,2.068h0.003
		c1.143,0,2.068-0.928,2.068-2.072c0.001-0.402-0.021-0.8-0.04-1.198c-0.421-8.311-5.352-15.773-12.922-19.381
		c-2.514-1.198-5.138-1.891-7.758-2.125c-1.388-0.124-2.774-0.117-4.144,0.012c-7.255,0.685-14.004,4.841-17.75,11.581
		c-0.233,0.419-0.458,0.844-0.667,1.282C39.103,72.01,39.536,73.247,40.567,73.743z"/>
</g>
</svg>
