<?xml version="1.0" encoding="utf-8"?>
<!-- Generator: Adobe Illustrator 16.0.0, SVG Export Plug-In . SVG Version: 6.00 Build 0)  -->
<!DOCTYPE svg PUBLIC "-//W3C//DTD SVG 1.1//EN" "http://www.w3.org/Graphics/SVG/1.1/DTD/svg11.dtd">
<svg version="1.1" id="Layer_1" xmlns="http://www.w3.org/2000/svg" xmlns:xlink="http://www.w3.org/1999/xlink" x="0px" y="0px"
	 width="120.865px" height="99.283px" viewBox="0 0 120.865 99.283" enable-background="new 0 0 120.865 99.283"
	 xml:space="preserve">
<g>
	<path fill="none" d="M60.433,25.9c-16.662,0-30.216,13.554-30.216,30.217c0,16.661,13.554,30.215,30.216,30.215
		s30.216-13.554,30.216-30.215C90.648,39.454,77.095,25.9,60.433,25.9z M79.857,62.591c0,1.191-0.968,2.158-2.158,2.158h-8.633
		v8.633c0,1.191-0.968,2.158-2.159,2.158H53.958c-1.192,0-2.159-0.967-2.159-2.158V64.75h-8.633c-1.19,0-2.158-0.967-2.158-2.158
		V49.641c0-1.191,0.968-2.158,2.158-2.158h8.633V38.85c0-1.192,0.967-2.159,2.159-2.159h12.949c1.191,0,2.159,0.967,2.159,2.159
		v8.633h8.633c1.19,0,2.158,0.967,2.158,2.158V62.591z"/>
	<path fill="none" d="M64.749,49.641v-8.633h-8.633v8.633c0,1.192-0.967,2.16-2.158,2.16h-8.634v8.633h8.634
		c1.191,0,2.158,0.967,2.158,2.158v8.633h8.633v-8.633c0-1.191,0.967-2.158,2.158-2.158h8.634V51.8h-8.634
		C65.716,51.8,64.749,50.833,64.749,49.641z"/>
	<rect x="43.166" y="4.317" fill="none" width="34.532" height="8.633"/>
	<path fill="none" d="M78.238,17.267H42.627H4.316v77.699h112.234l-0.002-77.699H78.238z M60.433,90.649
		c-19.041,0-34.533-15.491-34.533-34.532c0-19.042,15.492-34.534,34.533-34.534s34.533,15.492,34.533,34.534
		C94.966,75.158,79.474,90.649,60.433,90.649z"/>
	<path fill="#FF3162" d="M116.549,12.95H82.016V4.317c0-2.422-1.66-4.317-3.777-4.317H42.627c-2.118,0-3.777,1.895-3.777,4.317
		v8.633H4.316C1.936,12.95,0,14.886,0,17.267v77.699c0,2.381,1.936,4.316,4.316,4.316h112.232c2.381,0,4.316-1.936,4.316-4.316
		V17.267C120.865,14.886,118.93,12.95,116.549,12.95z M43.166,4.317h34.532v8.633H43.166V4.317z M4.316,94.966V17.267h38.311h35.611
		h38.311l0.002,77.699H4.316z"/>
	<path fill="#FF3162" d="M60.433,21.583c-19.041,0-34.533,15.492-34.533,34.534c0,19.041,15.492,34.532,34.533,34.532
		s34.533-15.491,34.533-34.532C94.966,37.075,79.474,21.583,60.433,21.583z M60.433,86.332c-16.662,0-30.216-13.554-30.216-30.215
		c0-16.663,13.554-30.217,30.216-30.217s30.216,13.554,30.216,30.217C90.648,72.778,77.095,86.332,60.433,86.332z"/>
	<path fill="#FF3162" d="M77.699,47.483h-8.633V38.85c0-1.192-0.968-2.159-2.159-2.159H53.958c-1.192,0-2.159,0.967-2.159,2.159
		v8.633h-8.633c-1.19,0-2.158,0.967-2.158,2.158v12.951c0,1.191,0.968,2.158,2.158,2.158h8.633v8.633
		c0,1.191,0.967,2.158,2.159,2.158h12.949c1.191,0,2.159-0.967,2.159-2.158V64.75h8.633c1.19,0,2.158-0.967,2.158-2.158V49.641
		C79.857,48.45,78.89,47.483,77.699,47.483z M75.541,60.433h-8.634c-1.191,0-2.158,0.967-2.158,2.158v8.633h-8.633v-8.633
		c0-1.191-0.967-2.158-2.158-2.158h-8.634V51.8h8.634c1.191,0,2.158-0.967,2.158-2.16v-8.633h8.633v8.633
		c0,1.192,0.967,2.16,2.158,2.16h8.634V60.433z"/>
</g>
</svg>
